<?xml version="1.0" encoding="UTF-8" standalone="no"?>
<!DOCTYPE svg PUBLIC "-//W3C//DTD SVG 1.1//EN" "http://www.w3.org/Graphics/SVG/1.1/DTD/svg11.dtd">
<svg width="100%" height="100%" viewBox="0 0 109 109" version="1.1" xmlns="http://www.w3.org/2000/svg" xmlns:xlink="http://www.w3.org/1999/xlink" xml:space="preserve" xmlns:serif="http://www.serif.com/" style="fill-rule:evenodd;clip-rule:evenodd;stroke-linejoin:round;stroke-miterlimit:2;">
    <g transform="matrix(1,0,0,1,-546.562,-2.13163e-14)">
        <g transform="matrix(1,0,0,1,-91.5259,-224.5)">
            <g id="Layer-1" serif:id="Layer 1">
                <g transform="matrix(1,0,0,1,722.282,270.583)">
                    <path d="M0,21.5L5.389,20.99C5.389,20.99 10.836,16.534 13.142,13.862C13.406,13.354 15.269,3.365 15.269,3.365L10.306,-18.203L4.669,-22.331L-4.65,-29.457L-11.091,-33.27L-17.592,-35.083L-21.906,-35.833L-35.448,-37.25L-47.115,-34.583L-60.948,-30.083L-65.948,-20.083L-75.115,-7.083L-76.448,1.917L-75.282,12.417C-75.282,12.417 -75.448,21.75 -74.948,22.25C-74.448,22.75 -72.115,31.574 -71.448,31.995C-70.782,32.417 -65.948,40.083 -65.448,40.75C-64.948,41.417 -57.782,48.25 -57.282,48.75C-56.782,49.25 -50.448,53.417 -50.448,53.417L-38.282,55.917L-29.703,58.75C-29.703,58.75 -15.448,57.083 -14.948,56.583C-14.448,56.083 -4.448,52.25 -4.448,52.25L2.718,48.583L12.769,40.083L16.552,31.995L13.885,27.417L5.385,33.417L-2.615,37.5L-23.115,41.417L-35.282,41.417L-48.948,37.083C-48.948,37.083 -59.615,29.25 -59.615,28.75C-59.615,28.25 -61.782,18.083 -62.115,17.583C-62.448,17.083 -59.282,2.583 -59.282,2.583L-56.448,-8.75L-53.782,-16.417L-36.448,-23.25L-27.782,-24.25L-14.282,-22.75L-7.948,-14.25C-7.948,-14.25 -1.042,-8.25 -1.042,-7.75C-1.042,-7.25 1.718,1.917 1.718,1.917L1.718,12.417L0,21.5Z" style="fill:rgb(105,190,40);fill-rule:nonzero;"/>
                </g>
                <g transform="matrix(1,0,0,1,638.088,281.237)">
                    <path d="M0,-2.247C0,27.847 24.396,52.243 54.49,52.243C84.584,52.243 108.981,27.847 108.981,-2.247C108.981,-2.841 108.968,-3.431 108.949,-4.021C108.873,-3.891 86.945,35.322 47.125,21.875C47.008,21.849 46.891,21.814 46.795,21.763C36.766,18.39 29.54,8.919 29.54,-2.247C29.54,-16.238 40.882,-27.58 54.873,-27.58C68.864,-27.58 80.206,-16.238 80.206,-2.247C80.206,6.825 75.434,14.779 68.266,19.254C68.318,19.302 68.374,19.339 68.426,19.343C68.639,19.36 78.813,18.439 89.675,10.267C90.702,7.999 91.523,5.565 92.132,2.963C93.195,-1.58 93.53,-6.207 92.615,-10.746C91.721,-15.186 90.538,-19.556 88.141,-23.582C83.794,-30.883 77.759,-36.106 69.981,-39.311C62.939,-42.213 55.586,-42.935 48.098,-41.568C45.855,-41.159 43.702,-40.233 41.523,-39.497C39.816,-38.919 38.033,-38.457 36.454,-37.621C27.065,-32.651 20.723,-25.031 17.242,-15.026C15.344,-9.572 14.647,-3.929 15.081,1.818C15.526,7.714 17.027,13.32 19.821,18.592C26.426,31.052 36.849,38.293 50.485,41.047C72.368,45.013 90.245,30.072 93.998,25.612C90.03,33.535 68.609,54.49 36.148,39.625C29.423,36.164 23.926,31.221 19.658,24.955C16.399,20.17 14.085,14.999 12.821,9.304C10.4,-1.601 11.555,-12.022 16.544,-22.012C19.561,-28.052 23.846,-33.031 29.222,-37.095C32.087,-39.261 35.253,-40.866 38.508,-42.347C40.803,-43.392 43.188,-44.211 45.621,-44.7C48.335,-45.245 51.139,-45.486 53.912,-45.564C61.208,-45.77 68.156,-44.249 74.66,-40.88C81.468,-37.353 86.857,-32.301 90.795,-25.716C93.107,-21.851 94.609,-17.688 95.525,-13.278C96.893,-6.69 96.71,-0.371 94.986,5.677C99.675,1.05 104.212,-5.124 107.844,-13.362C102.712,-38.126 80.775,-56.737 54.49,-56.737C24.396,-56.737 0,-32.341 0,-2.247" style="fill:rgb(0,21,50);fill-rule:nonzero;"/>
                </g>
                <g transform="matrix(1,0,0,1,735.038,315.241)">
                    <path d="M0,-12.659C0.262,-12.864 -3.539,-2.733 -6.738,0.205L-11.518,-4.593C-11.518,-4.593 -3.548,-8.537 0,-12.659" style="fill:rgb(105,190,40);fill-rule:nonzero;"/>
                </g>
            </g>
        </g>
    </g>
</svg>
