<?xml version="1.0" encoding="UTF-8"?>
<svg width="283px" height="40px" viewBox="0 0 283 40" version="1.1" xmlns="http://www.w3.org/2000/svg" xmlns:xlink="http://www.w3.org/1999/xlink">
    <title>humblestrong</title>
    <g id="Page-1" stroke="none" stroke-width="1" fill="none" fill-rule="evenodd">
        <g id="humblestrong" fill="#FFFFFF" fill-rule="nonzero">
            <polygon id="Path" points="6.06984 39.5033 0 39.5033 0 0.876358 6.06984 0.876358 6.06984 17.4308 12.9676 17.4308 12.9676 0.876358 19.1477 0.876358 19.1477 39.5033 12.9676 39.5033 12.9676 22.9489 6.06984 22.9489"></polygon>
            <path d="M29.356,0.876358 L29.356,30.6746 C29.356,33.4331 30.5697,34.4266 32.501,34.4266 C34.4324,34.4266 35.6468,33.4331 35.6468,30.6746 L35.6468,0.876358 L41.3854,0.876358 L41.3854,30.2877 C41.3854,36.4685 38.2954,40 32.3358,40 C26.3762,40 23.2862,36.4685 23.2862,30.2877 L23.2862,0.876358 L29.356,0.876358 Z" id="Path"></path>
            <polygon id="Path" points="58.3813 28.3014 62.5198 0.876358 70.9624 0.876358 70.9624 39.5033 65.2238 39.5033 65.2238 11.8024 61.0299 39.5033 55.2913 39.5033 50.7663 12.1888 50.7663 39.5033 45.4687 39.5033 45.4687 0.876358 53.9117 0.876358"></polygon>
            <path d="M81.4466,22.1213 L81.4466,33.9851 L84.9227,33.9851 C86.9647,33.9851 88.0681,33.0473 88.0681,30.1778 L88.0681,26.8115 C88.0681,23.2247 86.9094,22.1213 84.1501,22.1213 L81.4466,22.1213 Z M81.4466,6.39485 L81.4466,16.6032 L83.819,16.6032 C86.0815,16.6032 87.4611,15.61 87.4611,12.5196 L87.4611,10.3674 C87.4611,7.60853 86.5229,6.39485 84.371,6.39485 L81.4466,6.39485 Z M93.5313,9.76075 L93.5313,11.1404 C93.5313,15.1133 92.3169,17.6516 89.613,18.9206 C92.869,20.19 94.1383,23.1145 94.1383,27.198 L94.1383,30.343 C94.1383,36.3026 90.9929,39.5033 84.9227,39.5033 L75.3767,39.5033 L75.3767,0.876358 L84.5366,0.876358 C90.8274,0.876358 93.5313,3.80119 93.5313,9.76075 Z" id="Shape"></path>
            <polygon id="Path" points="97.78 0.876358 103.85 0.876358 103.85 33.9851 113.838 33.9851 113.838 39.5033 97.78 39.5033"></polygon>
            <polygon id="Path" points="122.556 17.1545 130.889 17.1545 130.889 22.673 122.556 22.673 122.556 33.9851 133.04 33.9851 133.04 39.5029 116.486 39.5029 116.486 0.876358 133.04 0.876358 133.04 6.39449 122.556 6.39449"></polygon>
            <path d="M146.323,0.434891 C152.228,0.434891 155.263,3.96638 155.263,10.1465 L155.263,11.3605 L149.524,11.3605 L149.524,9.76036 C149.524,7.00148 148.421,5.95302 146.489,5.95302 C144.558,5.95302 143.454,7.00148 143.454,9.76036 C143.454,17.7066 155.318,19.1965 155.318,30.2324 C155.318,36.4125 152.228,39.9443 146.268,39.9443 C140.309,39.9443 137.219,36.4125 137.219,30.2324 L137.219,27.86 L142.958,27.86 L142.958,30.6185 C142.958,33.3781 144.172,34.3712 146.103,34.3712 C148.035,34.3712 149.248,33.3781 149.248,30.6185 C149.248,22.673 137.384,21.1827 137.384,10.1465 C137.384,3.96638 140.419,0.434891 146.323,0.434891 Z" id="Path"></path>
            <polygon id="Path" points="157.029 0.876358 175.79 0.876358 175.79 6.39449 169.444 6.39449 169.444 39.5033 163.375 39.5033 163.375 6.39449 157.029 6.39449"></polygon>
            <path d="M184.509,6.39449 L184.509,18.2583 L186.881,18.2583 C189.143,18.2583 190.523,17.2652 190.523,14.1748 L190.523,10.3674 C190.523,7.60816 189.585,6.39449 187.433,6.39449 L184.509,6.39449 Z M191.13,39.5029 C190.799,38.5098 190.578,37.9028 190.578,34.7574 L190.578,28.6876 C190.578,25.1007 189.364,23.7764 186.605,23.7764 L184.509,23.7764 L184.509,39.5029 L178.439,39.5029 L178.439,0.876358 L187.598,0.876358 C193.889,0.876358 196.593,3.80119 196.593,9.76039 L196.593,12.7955 C196.593,16.7684 195.324,19.3617 192.62,20.6311 C195.655,21.9001 196.649,24.8249 196.649,28.8531 L196.649,34.8123 C196.649,36.6887 196.704,38.0687 197.311,39.5029 L191.13,39.5029 Z" id="Shape"></path>
            <polygon id="Path" points="247.238 11.5265 247.238 39.5033 241.775 39.5033 241.775 0.876358 249.389 0.876358 255.625 23.9973 255.625 0.876358 261.033 0.876358 261.033 39.5033 254.797 39.5033"></polygon>
            <path d="M274.497,17.9824 L282.995,17.9824 L282.995,30.2324 C282.995,36.4128 279.905,39.9443 273.945,39.9443 C267.985,39.9443 264.895,36.4128 264.895,30.2324 L264.895,10.1468 C264.895,3.96638 267.985,0.434891 273.945,0.434891 C279.905,0.434891 282.995,3.96638 282.995,10.1468 L282.995,13.8989 L277.256,13.8989 L277.256,9.76036 C277.256,7.00148 276.042,5.95302 274.111,5.95302 C272.179,5.95302 270.965,7.00148 270.965,9.76036 L270.965,30.6188 C270.965,33.3781 272.179,34.3712 274.111,34.3712 C276.042,34.3712 277.256,33.3781 277.256,30.6188 L277.256,23.5006 L274.497,23.5006 L274.497,17.9824 Z" id="Path"></path>
            <path d="M198.905,19.83 C198.905,30.7819 207.783,39.6601 218.735,39.6601 C229.687,39.6601 238.566,30.7819 238.566,19.83 C238.566,19.6139 238.561,19.3992 238.554,19.1845 C238.526,19.2318 230.546,33.5022 216.055,28.6085 C216.012,28.5991 215.97,28.5863 215.935,28.5678 C212.285,27.3403 209.655,23.8936 209.655,19.83 C209.655,14.7384 213.783,10.6108 218.875,10.6108 C223.966,10.6108 228.094,14.7384 228.094,19.83 C228.094,23.1315 226.357,26.0262 223.749,27.6547 C223.768,27.6722 223.788,27.6856 223.807,27.6871 C223.884,27.6933 227.587,27.3581 231.54,24.3842 C231.914,23.5588 232.212,22.673 232.434,21.7261 C232.821,20.0728 232.943,18.3889 232.61,16.7371 C232.284,15.1213 231.854,13.5309 230.982,12.0658 C229.4,9.40881 227.203,7.50805 224.373,6.34168 C221.81,5.28559 219.134,5.02284 216.409,5.52032 C215.593,5.66916 214.809,6.00615 214.016,6.27399 C213.395,6.48434 212.746,6.65247 212.172,6.95671 C208.755,8.7654 206.447,11.5385 205.18,15.1795 C204.489,17.1643 204.236,19.2179 204.394,21.3094 C204.556,23.4551 205.102,25.4952 206.119,27.4138 C208.522,31.9482 212.315,34.5834 217.278,35.5856 C225.242,37.0289 231.747,31.5916 233.113,29.9685 C231.669,32.8519 223.874,40.4778 212.06,35.0681 C209.613,33.8086 207.612,32.0098 206.059,29.7294 C204.873,27.9881 204.031,26.1062 203.571,24.0337 C202.69,20.0651 203.11,16.2727 204.926,12.6372 C206.024,10.4391 207.583,8.62711 209.54,7.14813 C210.582,6.35988 211.735,5.77579 212.919,5.23682 C213.754,4.85652 214.622,4.55847 215.508,4.38052 C216.495,4.18218 217.516,4.09447 218.525,4.06609 C221.18,3.99112 223.709,4.54464 226.076,5.77069 C228.553,7.05424 230.514,8.89277 231.947,11.2892 C232.789,12.6957 233.335,14.2107 233.669,15.8156 C234.167,18.2131 234.1,20.5128 233.473,22.7138 C235.179,21.0299 236.83,18.783 238.152,15.7851 C236.284,6.77293 228.301,0 218.735,0 C207.783,0 198.905,8.87821 198.905,19.83 Z" id="Path"></path>
        </g>
    </g>
</svg>