<?xml version="1.0" encoding="UTF-8"?>
<svg width="12px" height="7px" viewBox="0 0 12 7" version="1.1" xmlns="http://www.w3.org/2000/svg" xmlns:xlink="http://www.w3.org/1999/xlink">
    <title>&gt;</title>
    <g id="Page-1" stroke="none" stroke-width="1" fill="none" fill-rule="evenodd">
        <g id="&gt;" fill="#245998" fill-rule="nonzero">
            <path d="M7.0487106,0.284552846 C7.08309456,0.284552846 7.11747851,0.298780488 7.15186246,0.327235772 L7.18624642,0.355691057 C7.18624642,0.365176152 7.19197708,0.369918699 7.2034384,0.369918699 L7.2034384,0.725609756 C7.2034384,0.725609756 7.21489971,0.730352304 7.23782235,0.739837398 L7.2722063,0.739837398 C7.27984718,0.727190605 7.29385546,0.712436013 7.31423114,0.695573622 L7.3495702,0.668699187 C7.38968481,0.640243902 7.41547278,0.616531165 7.4269341,0.597560976 L7.4269341,0.62601626 C7.4269341,0.654471545 7.41833811,0.680555556 7.40114613,0.704268293 C7.38395415,0.72798103 7.37535817,0.754065041 7.37535817,0.782520325 C7.37535817,0.801490515 7.38108883,0.825203252 7.39255014,0.853658537 C7.40401146,0.882113821 7.43266476,0.886856369 7.47851003,0.867886179 L7.92550143,0.682926829 L7.92550143,0.725609756 C7.92550143,0.735094851 7.93123209,0.744579946 7.94269341,0.754065041 C7.94269341,0.801490515 7.93123209,0.839430894 7.90830946,0.867886179 C7.88538682,0.896341463 7.8739255,0.934281843 7.8739255,0.981707317 C7.8739255,1.00067751 7.87679083,1.02439024 7.88252149,1.05284553 C7.88825215,1.08130081 7.91404011,1.09552846 7.95988539,1.09552846 L7.97707736,1.09552846 C8,1.08604336 8.05444126,1.07181572 8.14040115,1.05284553 C8.22636103,1.03387534 8.28080229,1.0196477 8.30372493,1.0101626 C8.30372493,1.0196477 8.31232092,1.04098916 8.32951289,1.07418699 C8.34670487,1.10738482 8.36103152,1.12872629 8.37249284,1.13821138 L8.38968481,1.13821138 C8.40114613,1.13821138 8.42979943,1.13584011 8.4756447,1.13109756 C8.52148997,1.12635501 8.57020057,1.12161247 8.6217765,1.11686992 C8.67335244,1.11212737 8.71919771,1.10264228 8.75931232,1.08841463 C8.79942693,1.07418699 8.81948424,1.05284553 8.81948424,1.02439024 C8.81948424,0.967479675 8.78510029,0.936653117 8.71633238,0.931910569 C8.64756447,0.927168022 8.61318052,0.886856369 8.61318052,0.81097561 C8.71633238,0.81097561 8.79083095,0.829945799 8.83667622,0.867886179 C8.88252149,0.905826558 8.9226361,0.953252033 8.95702006,1.0101626 C8.99140401,1.06707317 9.02292264,1.12398374 9.05157593,1.18089431 C9.08022923,1.23780488 9.12893983,1.28523035 9.19770774,1.32317073 C9.19770774,1.33265583 9.2034384,1.33739837 9.21489971,1.33739837 L9.24928367,1.33739837 C9.30659026,1.33739837 9.35530086,1.30657182 9.39541547,1.2449187 C9.43553009,1.18326558 9.47851003,1.13346883 9.5243553,1.09552846 L9.5243553,1.43699187 C9.58166189,1.43699187 9.61891117,1.42039295 9.63610315,1.38719512 C9.65329513,1.35399729 9.67048711,1.31605691 9.68767908,1.27337398 C9.70487106,1.23069106 9.73065903,1.19275068 9.76504298,1.15955285 C9.79942693,1.12635501 9.85673352,1.1097561 9.93696275,1.1097561 C9.93696275,1.12872629 9.93409742,1.15718157 9.92836676,1.19512195 C9.9226361,1.23306233 9.91404011,1.26151762 9.9025788,1.2804878 C9.9025788,1.29945799 9.88538682,1.32317073 9.85100287,1.35162602 C9.81661891,1.3800813 9.79942693,1.40379404 9.79942693,1.42276423 C9.79942693,1.43224932 9.81375358,1.45359079 9.84240688,1.48678862 C9.87106017,1.51998645 9.89111748,1.54132791 9.9025788,1.55081301 L9.93696275,1.56504065 C9.9713467,1.56504065 10,1.55555556 10.0229226,1.53658537 C10.0458453,1.51761518 10.0802292,1.50813008 10.1260745,1.50813008 C10.1833811,1.50813008 10.2406877,1.51287263 10.2979943,1.52235772 C10.3553009,1.53184282 10.4126074,1.53658537 10.469914,1.53658537 C10.469914,1.48915989 10.4727794,1.4251355 10.47851,1.3445122 C10.4842407,1.26388889 10.5386819,1.22357724 10.6418338,1.22357724 C10.6418338,1.33739837 10.6189112,1.44647696 10.5730659,1.55081301 L10.6418338,1.56504065 C10.7449857,1.56504065 10.8366762,1.54132791 10.9169054,1.49390244 C10.9971347,1.44647696 11.0888252,1.42276423 11.1919771,1.42276423 C11.3409742,1.42276423 11.4555874,1.4796748 11.5358166,1.59349593 C11.6160458,1.70731707 11.6962751,1.80216802 11.7765043,1.87804878 C11.730659,1.88753388 11.7020057,1.91361789 11.6905444,1.95630081 C11.6790831,1.99898374 11.6733524,2.03929539 11.6733524,2.07723577 L11.6733524,2.10569106 C11.6733524,2.11517615 11.6790831,2.12466125 11.6905444,2.13414634 C11.7020057,2.14363144 11.713467,2.14837398 11.7249284,2.14837398 C11.7363897,2.07249322 11.7707736,2.01558266 11.8280802,1.97764228 C11.8853868,1.9397019 11.9140401,1.88279133 11.9140401,1.80691057 L11.9484241,1.82113821 C11.9598854,1.8401084 11.9713467,1.85670732 11.982808,1.87093496 C11.9942693,1.8851626 12,1.90176152 12,1.92073171 L12,3.05894309 C11.9426934,3.08739837 11.9054441,3.12059621 11.8882521,3.15853659 C11.8710602,3.19647696 11.8510029,3.23915989 11.8280802,3.28658537 L11.8280802,3.32926829 C11.7936963,3.38617886 11.730659,3.40514905 11.6389685,3.38617886 C11.5472779,3.36720867 11.47851,3.35772358 11.4326648,3.35772358 C11.4326648,3.38617886 11.4498567,3.45020325 11.4842407,3.54979675 C11.5186246,3.64939024 11.5243553,3.71341463 11.5014327,3.74186992 C11.4899713,3.76084011 11.4641834,3.79166667 11.4240688,3.83434959 C11.3839542,3.87703252 11.3352436,3.91971545 11.277937,3.96239837 C11.2206304,4.0050813 11.1633238,4.04065041 11.1060172,4.06910569 C11.0487106,4.09756098 10.9971347,4.10704607 10.9512894,4.09756098 C10.9283668,4.09756098 10.8997135,4.08807588 10.8653295,4.06910569 C10.8309456,4.0501355 10.8022923,4.03116531 10.7793696,4.01219512 L10.7793696,4.21138211 C10.7335244,4.21138211 10.6934097,4.22798103 10.6590258,4.26117886 C10.6246418,4.29437669 10.6131805,4.33468835 10.6246418,4.38211382 C10.5558739,4.37262873 10.4584527,4.38448509 10.3323782,4.41768293 C10.2063037,4.45088076 10.0773639,4.49593496 9.94555874,4.55284553 C9.81375358,4.6097561 9.69340974,4.67378049 9.58452722,4.7449187 C9.4756447,4.81605691 9.3982808,4.87533875 9.35243553,4.92276423 C9.36389685,4.88482385 9.36103152,4.83739837 9.34383954,4.7804878 C9.32664756,4.72357724 9.29512894,4.67140921 9.24928367,4.62398374 C9.2034384,4.57655827 9.15759312,4.53387534 9.11174785,4.49593496 C9.06590258,4.45799458 9.02578797,4.43902439 8.99140401,4.43902439 C8.99140401,4.50542005 9.01719198,4.58130081 9.06876791,4.66666667 C9.12034384,4.75203252 9.14613181,4.84214092 9.14613181,4.93699187 C9.14613181,4.95596206 9.13180516,4.98915989 9.10315186,5.03658537 C9.07449857,5.08401084 9.04011461,5.13143631 9,5.17886179 C8.95988539,5.22628726 8.91977077,5.26897019 8.87965616,5.30691057 C8.83954155,5.34485095 8.80802292,5.36382114 8.78510029,5.36382114 L8.78510029,5.12195122 L8.78510029,5.12195122 C8.78510029,5.02710027 8.77363897,4.94647696 8.75071633,4.8800813 L8.71633238,4.86585366 C8.69340974,4.86585366 8.68194842,4.89430894 8.68194842,4.95121951 L8.68194842,5.13617886 L8.68194842,5.13617886 C8.68194842,5.20257453 8.67908309,5.26422764 8.67335244,5.32113821 C8.66762178,5.37804878 8.65902579,5.40650407 8.64756447,5.40650407 C8.63610315,5.41598916 8.61031519,5.40650407 8.57020057,5.37804878 C8.53008596,5.3495935 8.48997135,5.31876694 8.44985673,5.28556911 C8.40974212,5.25237127 8.36962751,5.22154472 8.32951289,5.19308943 C8.28939828,5.16463415 8.26361032,5.1504065 8.252149,5.1504065 L8.28653295,5.6199187 L8.23495702,5.6199187 L8.23495702,5.47764228 L8.06303725,5.47764228 L8.16618911,5.8902439 C7.9025788,5.8902439 7.77077364,6.00406504 7.77077364,6.23170732 C7.83954155,6.23170732 7.88825215,6.21036585 7.91690544,6.16768293 C7.94555874,6.125 7.99426934,6.10365854 8.06303725,6.10365854 L8.06303725,6.40243902 C8.04011461,6.40243902 8.00573066,6.38346883 7.95988539,6.34552846 L7.90830946,6.38821138 C7.89684814,6.40718157 7.8739255,6.43089431 7.83954155,6.45934959 C7.80515759,6.48780488 7.7765043,6.50677507 7.75358166,6.51626016 C7.74212034,6.53523035 7.6991404,6.54471545 7.62464183,6.54471545 C7.55014327,6.54471545 7.50143266,6.54945799 7.47851003,6.55894309 C7.46704871,6.56842818 7.44126074,6.59925474 7.40114613,6.65142276 C7.36103152,6.70359079 7.33524355,6.73441734 7.32378223,6.74390244 C7.3008596,6.76287263 7.24928367,6.78658537 7.16905444,6.81504065 C7.08882521,6.84349593 7.00573066,6.87195122 6.91977077,6.9004065 C6.83381089,6.92886179 6.75358166,6.95257453 6.67908309,6.97154472 C6.60458453,6.99051491 6.55014327,7 6.51575931,7 L6.51575931,6.85060976 L6.51575931,6.85060976 C6.51575931,6.76998645 6.48137536,6.7296748 6.41260745,6.7296748 L6.3782235,6.74390244 C6.3782235,6.75338753 6.36389685,6.76998645 6.33524355,6.79369919 C6.30659026,6.81741192 6.28653295,6.82926829 6.27507163,6.82926829 C6.26361032,6.83875339 6.24641834,6.84349593 6.2234957,6.84349593 C6.21203438,6.84349593 6.20057307,6.84823848 6.18911175,6.85772358 L6.18911175,6.60162602 L6.03438395,6.60162602 C6.03438395,6.4403794 6.08022923,6.2696477 6.17191977,6.08943089 C6.26361032,5.90921409 6.37249284,5.76219512 6.49856734,5.64837398 C6.59312321,5.57012195 6.66189112,5.49320376 6.70487106,5.41761941 L6.73925501,5.34247967 C6.77363897,5.24288618 6.85959885,5.14092141 6.99713467,5.03658537 C7.02005731,5.01761518 7.06017192,4.97730352 7.11747851,4.91565041 C7.1747851,4.85399729 7.23782235,4.78760163 7.30659026,4.71646341 C7.37535817,4.6453252 7.45558739,4.57418699 7.54727794,4.50304878 C7.63896848,4.43191057 7.73065903,4.37262873 7.82234957,4.32520325 C7.9025788,4.29674797 7.96275072,4.23509485 8.00286533,4.1402439 C8.04297994,4.04539295 8.09169054,3.97425474 8.14899713,3.92682927 C8.16045845,3.90785908 8.18624642,3.88888889 8.22636103,3.8699187 C8.26647564,3.85094851 8.29226361,3.83672087 8.30372493,3.82723577 C8.32664756,3.81775068 8.37535817,3.81300813 8.44985673,3.81300813 C8.5243553,3.81300813 8.56733524,3.80352304 8.57879656,3.78455285 C8.6017192,3.77506775 8.61604585,3.75135501 8.6217765,3.71341463 C8.62384591,3.69971394 8.62628896,3.68786855 8.62910565,3.67787846 L8.58585859,3.68152866 L8.58585859,3.68152866 C8.57239057,3.63906582 8.56228956,3.62208068 8.55555556,3.63057325 C8.54882155,3.63906582 8.53872054,3.6433121 8.52525253,3.6433121 L8.52525253,3.69426752 C8.51178451,3.69426752 8.47643098,3.69639066 8.41919192,3.70063694 C8.36195286,3.70488323 8.32323232,3.71125265 8.3030303,3.71974522 C8.28956229,3.71974522 8.25757576,3.72611465 8.20707071,3.7388535 C8.15656566,3.75159236 8.12457912,3.75796178 8.11111111,3.75796178 C8.0976431,3.74946921 8.08080808,3.73036093 8.06060606,3.70063694 C8.04040404,3.67091295 8.02693603,3.64755839 8.02020202,3.63057325 C8.02020202,3.64755839 8.01178451,3.66454352 7.99494949,3.68152866 C7.97811448,3.6985138 7.96632997,3.71125265 7.95959596,3.71974522 C7.95286195,3.71974522 7.93602694,3.71125265 7.90909091,3.69426752 C7.8956229,3.68577495 7.88215488,3.68152866 7.86868687,3.68152866 C7.8013468,3.66454352 7.75589226,3.64755839 7.73232323,3.63057325 C7.70875421,3.61358811 7.69191919,3.59660297 7.68181818,3.57961783 C7.67171717,3.5626327 7.66329966,3.5477707 7.65656566,3.53503185 C7.64983165,3.52229299 7.62626263,3.51592357 7.58585859,3.51592357 C7.58585859,3.58386412 7.57575758,3.62208068 7.55555556,3.63057325 C7.53535354,3.63906582 7.49158249,3.6433121 7.42424242,3.6433121 C7.37037037,3.6433121 7.32659933,3.63906582 7.29292929,3.63057325 C7.25925926,3.62208068 7.22558923,3.57112527 7.19191919,3.47770701 L7.19191919,3.57961783 C7.13804714,3.57961783 7.0959596,3.59872611 7.06565657,3.63694268 C7.03535354,3.67515924 6.996633,3.69426752 6.94949495,3.69426752 C6.94949495,3.66878981 6.94781145,3.62420382 6.94444444,3.56050955 C6.94107744,3.49681529 6.92592593,3.46496815 6.8989899,3.46496815 C6.85185185,3.46496815 6.81649832,3.49469214 6.79292929,3.55414013 C6.76936027,3.61358811 6.73737374,3.6433121 6.6969697,3.6433121 C6.66329966,3.6433121 6.63804714,3.63269639 6.62121212,3.61146497 C6.6043771,3.59023355 6.57912458,3.57961783 6.54545455,3.57961783 C6.4983165,3.57961783 6.45959596,3.6029724 6.42929293,3.64968153 C6.3989899,3.69639066 6.38383838,3.74946921 6.38383838,3.8089172 C6.35016835,3.8089172 6.33164983,3.80042463 6.32828283,3.78343949 C6.32491582,3.76645435 6.32323232,3.73673036 6.32323232,3.69426752 C6.25589226,3.69426752 6.2020202,3.69214437 6.16161616,3.68789809 C6.12121212,3.6836518 6.07407407,3.68152866 6.02020202,3.68152866 C5.96632997,3.68152866 5.91582492,3.69426752 5.86868687,3.71974522 C5.82154882,3.74522293 5.77441077,3.75796178 5.72727273,3.75796178 C5.69360269,3.75796178 5.65993266,3.74522293 5.62626263,3.71974522 C5.59259259,3.69426752 5.55892256,3.68152866 5.52525253,3.68152866 C5.48484848,3.68152866 5.45117845,3.70700637 5.42424242,3.75796178 C5.42424242,3.74097665 5.41582492,3.72611465 5.3989899,3.7133758 C5.38215488,3.70063694 5.37037037,3.69002123 5.36363636,3.68152866 L5.35353535,3.68152866 C5.31986532,3.68152866 5.28282828,3.70912951 5.24242424,3.76433121 C5.2020202,3.81953291 5.14478114,3.84713376 5.07070707,3.84713376 L5.0719697,3.8343949 L5.0719697,3.8343949 L5.07575758,3.82165605 C5.07912458,3.81316348 5.08080808,3.80467091 5.08080808,3.79617834 L5.11111111,3.71974522 L5.12121212,3.69426752 L5.11111111,3.68152866 C5.0976431,3.66454352 5.08080808,3.64755839 5.06060606,3.63057325 C5.04040404,3.61358811 5.02356902,3.60084926 5.01010101,3.59235669 C4.996633,3.59235669 4.97138047,3.59023355 4.93434343,3.58598726 C4.8973064,3.58174098 4.87205387,3.57961783 4.85858586,3.57961783 C4.83838384,3.57961783 4.80808081,3.58174098 4.76767677,3.58598726 C4.72727273,3.59023355 4.7037037,3.59235669 4.6969697,3.59235669 C4.69023569,3.59235669 4.65656566,3.59872611 4.5959596,3.61146497 C4.53535354,3.62420382 4.5016835,3.62632696 4.49494949,3.61783439 C4.48148148,3.61783439 4.46296296,3.60721868 4.43939394,3.58598726 C4.41582492,3.56475584 4.3973064,3.54989384 4.38383838,3.54140127 C4.37710438,3.56687898 4.35858586,3.59447983 4.32828283,3.62420382 C4.2979798,3.65392781 4.26430976,3.6836518 4.22727273,3.7133758 C4.19023569,3.74309979 4.15319865,3.76857749 4.11616162,3.78980892 C4.07912458,3.81104034 4.05050505,3.82165605 4.03030303,3.82165605 C3.95622896,3.83014862 3.90740741,3.81528662 3.88383838,3.77707006 C3.86026936,3.7388535 3.82154882,3.70700637 3.76767677,3.68152866 C3.74747475,3.67303609 3.72390572,3.67728238 3.6969697,3.69426752 C3.67003367,3.71125265 3.64141414,3.73248408 3.61111111,3.75796178 C3.58080808,3.78343949 3.55218855,3.80467091 3.52525253,3.82165605 C3.4983165,3.83864119 3.47474747,3.84288747 3.45454545,3.8343949 C3.44107744,3.8343949 3.42424242,3.81740977 3.4040404,3.78343949 C3.38383838,3.74946921 3.36700337,3.72399151 3.35353535,3.70700637 L3.32323232,3.70700637 L3.27833895,3.73248408 C3.26786382,3.73814579 3.25589226,3.74451522 3.24242424,3.75159236 C3.2020202,3.77282378 3.17845118,3.78343949 3.17171717,3.78343949 L3.13131313,3.78343949 C3.0976431,3.78343949 3.07744108,3.76433121 3.07070707,3.72611465 C3.06397306,3.68789809 3.03367003,3.66878981 2.97979798,3.66878981 C2.92592593,3.66029724 2.87878788,3.66454352 2.83838384,3.68152866 C2.7979798,3.6985138 2.75420875,3.67303609 2.70707071,3.60509554 L2.70707071,3.61783439 C2.70707071,3.63481953 2.7003367,3.6433121 2.68686869,3.6433121 C2.68013468,3.6433121 2.65488215,3.64755839 2.61111111,3.65605096 C2.56734007,3.66454352 2.53872054,3.66878981 2.52525253,3.66878981 C2.4983165,3.69426752 2.47138047,3.71549894 2.44444444,3.73248408 C2.42424242,3.74946921 2.4040404,3.76220807 2.38383838,3.77070064 C2.36363636,3.77919321 2.35016835,3.78768577 2.34343434,3.79617834 L2.33333333,3.7977707 L2.33333333,3.7977707 L2.32323232,3.80254777 C2.31649832,3.80679406 2.30976431,3.8089172 2.3030303,3.8089172 C2.26936027,3.8089172 2.24915825,3.80042463 2.24242424,3.78343949 C2.23569024,3.76645435 2.22222222,3.76220807 2.2020202,3.77070064 C2.16835017,3.77070064 2.13131313,3.78556263 2.09090909,3.81528662 C2.05050505,3.84501062 2.01346801,3.86836518 1.97979798,3.88535032 C1.90572391,3.88535032 1.86195286,3.8492569 1.84848485,3.77707006 C1.83501684,3.70488323 1.81818182,3.63057325 1.7979798,3.55414013 C1.78451178,3.57112527 1.75252525,3.57961783 1.7020202,3.57961783 C1.65151515,3.57961783 1.61952862,3.57537155 1.60606061,3.56687898 C1.5993266,3.56687898 1.58922559,3.60084926 1.57575758,3.66878981 L1.55555556,3.77070064 L1.16161616,3.57961783 C1.14141414,3.57961783 1.12794613,3.59023355 1.12121212,3.61146497 C1.11447811,3.63269639 1.10942761,3.65605096 1.10606061,3.68152866 C1.1026936,3.70700637 1.0976431,3.72823779 1.09090909,3.74522293 C1.08417508,3.76220807 1.06734007,3.77070064 1.04040404,3.77070064 L1.02020202,3.75796178 C1,3.74946921 0.973063973,3.7388535 0.939393939,3.72611465 C0.905723906,3.7133758 0.885521886,3.70276008 0.878787879,3.69426752 C0.872053872,3.71974522 0.868686869,3.74097665 0.868686869,3.75796178 L0.867424242,3.76910828 L0.867424242,3.76910828 C0.86026936,3.78131635 0.858585859,3.78768577 0.858585859,3.79617834 L0.858585859,3.8089172 C0.858585859,3.80042463 0.85016835,3.7940552 0.833333333,3.78980892 C0.816498316,3.78556263 0.804713805,3.77919321 0.797979798,3.77070064 C0.764309764,3.73673036 0.744107744,3.70488323 0.737373737,3.67515924 C0.730639731,3.64543524 0.725589226,3.61571125 0.722222222,3.58598726 C0.718855219,3.55626327 0.708754209,3.53078556 0.691919192,3.50955414 C0.675084175,3.48832272 0.643097643,3.47346072 0.595959596,3.46496815 L0.646464646,3.31210191 C0.592592593,3.32908705 0.528619529,3.3163482 0.454545455,3.27388535 C0.38047138,3.23142251 0.311447811,3.17409766 0.247474747,3.10191083 C0.183501684,3.02972399 0.127946128,2.95329087 0.0808080808,2.87261146 C0.0336700337,2.79193206 0.00673400673,2.71762208 0,2.64968153 C0,2.57324841 0.0117845118,2.52016985 0.0353535354,2.49044586 C0.0589225589,2.46072187 0.0892255892,2.44161359 0.126262626,2.43312102 C0.163299663,2.42462845 0.207070707,2.42038217 0.257575758,2.42038217 C0.308080808,2.42038217 0.356902357,2.41613588 0.404040404,2.40764331 C0.424242424,2.40764331 0.457912458,2.40127389 0.505050505,2.38853503 C0.552188552,2.37579618 0.601010101,2.36093418 0.651515152,2.34394904 C0.702020202,2.32696391 0.750841751,2.31210191 0.797979798,2.29936306 C0.845117845,2.2866242 0.878787879,2.27600849 0.898989899,2.26751592 C0.912457912,2.25902335 0.934343434,2.23779193 0.964646465,2.20382166 C0.994949495,2.16985138 1.01683502,2.15286624 1.03030303,2.15286624 L1.04040404,2.15286624 C1.09427609,2.14437367 1.14478114,2.15923567 1.19191919,2.19745223 C1.23905724,2.23566879 1.28956229,2.25053079 1.34343434,2.24203822 C1.3973064,2.23354565 1.45286195,2.22080679 1.51010101,2.20382166 C1.56734007,2.18683652 1.62289562,2.17834395 1.67676768,2.17834395 C1.69023569,2.17834395 1.71380471,2.17622081 1.74747475,2.17197452 C1.78114478,2.16772824 1.8047138,2.1656051 1.81818182,2.1656051 C1.84511785,2.23354565 1.89057239,2.26751592 1.95454545,2.26751592 C2.01851852,2.26751592 2.08754209,2.26326964 2.16161616,2.25477707 C2.23569024,2.2462845 2.31144781,2.24840764 2.38888889,2.2611465 C2.46632997,2.27388535 2.53198653,2.32696391 2.58585859,2.42038217 C2.61279461,2.46284501 2.62289562,2.48619958 2.61616162,2.49044586 C2.60942761,2.49469214 2.62962963,2.492569 2.67676768,2.48407643 L2.73232323,2.48407643 L2.73232323,2.48407643 C2.75589226,2.48407643 2.77104377,2.47133758 2.77777778,2.44585987 L2.71717172,2.3566879 C2.71717172,2.32271762 2.73737374,2.30785563 2.77777778,2.31210191 L2.81257015,2.31564048 L2.81257015,2.31564048 L2.84848485,2.31847134 L2.84848485,2.31847134 L2.93939394,2.31847134 L2.93939394,2.31847134 C2.95735129,2.31847134 2.97231575,2.32979476 2.98428732,2.35244161 L3,2.393 L2.98989899,2.26751592 L3.02020202,2.26751592 C3.02693603,2.26751592 3.03703704,2.27176221 3.05050505,2.28025478 C3.07744108,2.29723992 3.09090909,2.30573248 3.09090909,2.30573248 L3.11111111,2.30573248 C3.11784512,2.30573248 3.12457912,2.3014862 3.13131313,2.29299363 C3.14478114,2.27600849 3.15488215,2.26751592 3.16161616,2.26751592 C3.17508418,2.25902335 3.19191919,2.25053079 3.21212121,2.24203822 C3.21885522,2.24203822 3.24410774,2.24840764 3.28787879,2.2611465 C3.33164983,2.27388535 3.36026936,2.28025478 3.37373737,2.28025478 L3.39393939,2.25477707 C3.41414141,2.22929936 3.42424242,2.22080679 3.42424242,2.22929936 C3.45791246,2.23779193 3.47979798,2.24203822 3.48989899,2.24203822 L3.51010101,2.24203822 L3.51010101,2.24203822 C3.51346801,2.24203822 3.52020202,2.23991507 3.53030303,2.23566879 C3.54040404,2.23142251 3.56565657,2.23354565 3.60606061,2.24203822 C3.61279461,2.24203822 3.63804714,2.24416136 3.68181818,2.24840764 C3.72558923,2.25265393 3.75420875,2.27176221 3.76767677,2.30573248 L3.79419192,2.30414013 L3.79419192,2.30414013 L3.83333333,2.29936306 C3.86363636,2.29511677 3.88552189,2.29299363 3.8989899,2.29299363 C3.95286195,2.29299363 4.003367,2.27600849 4.05050505,2.24203822 C4.0976431,2.20806794 4.14141414,2.1910828 4.18181818,2.1910828 C4.23569024,2.18259023 4.29292929,2.1910828 4.35353535,2.21656051 C4.41414141,2.24203822 4.47138047,2.25053079 4.52525253,2.24203822 C4.53198653,2.24203822 4.56228956,2.23991507 4.61616162,2.23566879 L4.66217733,2.23213022 L4.66217733,2.23213022 L4.70707071,2.22929936 L4.70707071,2.22929936 L4.72727273,2.22929936 C4.74074074,2.22929936 4.75084175,2.23354565 4.75757576,2.24203822 L4.7979798,2.26751592 C4.81144781,2.26751592 4.84006734,2.26963907 4.88383838,2.27388535 C4.92760943,2.27813163 4.95622896,2.28025478 4.96969697,2.28025478 L4.96969697,2.30573248 C5.02356902,2.30573248 5.08080808,2.30360934 5.14141414,2.29936306 C5.2020202,2.29511677 5.25925926,2.27176221 5.31313131,2.22929936 C5.34680135,2.19532909 5.36868687,2.18683652 5.37878788,2.20382166 C5.38888889,2.22080679 5.42087542,2.22929936 5.47474747,2.22929936 C5.51515152,2.22929936 5.55555556,2.23566879 5.5959596,2.24840764 C5.63636364,2.2611465 5.67676768,2.26751592 5.71717172,2.26751592 L5.71717172,2.20382166 L6.05050505,2.20382166 C6.05050505,2.17834395 6.06397306,2.1656051 6.09090909,2.1656051 C6.0976431,2.1656051 6.10774411,2.17197452 6.12121212,2.18471338 C6.13468013,2.19745223 6.14478114,2.20382166 6.15151515,2.20382166 L6.43434343,2.20382166 C6.46127946,2.27176221 6.50505051,2.32271762 6.56565657,2.3566879 C6.62626263,2.39065817 6.68350168,2.40764331 6.73737374,2.40764331 L6.75757576,2.40764331 C6.87073272,2.30385603 6.99567565,2.23970561 7.13240454,2.21519204 C7.02730958,2.16214212 6.91906214,2.10382973 6.80802292,2.04166667 C6.61318052,1.93258808 6.43553009,1.82825203 6.27507163,1.72865854 C6.11461318,1.62906504 6.02292264,1.55555556 6,1.50813008 L6,1.23780488 C6,1.21883469 6.00286533,1.17378049 6.00859599,1.10264228 C6.01432665,1.03150407 6.02005731,0.955623306 6.02578797,0.875 C6.03151862,0.794376694 6.04297994,0.720867209 6.06017192,0.654471545 C6.0773639,0.588075881 6.10315186,0.554878049 6.13753582,0.554878049 L6.17191977,0.554878049 C6.19484241,0.573848238 6.24641834,0.621273713 6.32664756,0.697154472 C6.40687679,0.77303523 6.48710602,0.81097561 6.56733524,0.81097561 C6.56733524,0.801490515 6.57879656,0.789634146 6.6017192,0.775406504 C6.62464183,0.761178862 6.62464183,0.749322493 6.6017192,0.739837398 C6.57879656,0.720867209 6.53581662,0.70901084 6.47277937,0.704268293 C6.40974212,0.699525745 6.3782235,0.673441734 6.3782235,0.62601626 C6.3782235,0.588075881 6.40687679,0.550135501 6.46418338,0.512195122 C6.52148997,0.474254743 6.58739255,0.438685637 6.66189112,0.405487805 C6.73638968,0.372289973 6.81088825,0.343834688 6.88538682,0.320121951 C6.95988539,0.296409214 7.01432665,0.284552846 7.0487106,0.284552846 Z M10.9340974,1.77845528 C10.8538682,1.77845528 10.8080229,1.79979675 10.7965616,1.84247967 C10.7851003,1.8851626 10.7793696,1.93495935 10.7793696,1.99186992 C10.7793696,2.05826558 10.7908309,2.10806233 10.8137536,2.14126016 C10.8366762,2.17445799 10.8825215,2.2195122 10.9512894,2.27642276 C10.974212,2.22899729 11.0372493,2.1649729 11.1404011,2.08434959 C11.243553,2.00372629 11.2951289,1.9397019 11.2951289,1.89227642 C11.2951289,1.83536585 11.2492837,1.80216802 11.1575931,1.79268293 C11.0659026,1.78319783 10.991404,1.77845528 10.9340974,1.77845528 Z" id="Combined-Shape"></path>
        </g>
    </g>
</svg>